<svg viewBox="0 0 36 36" xmlns="http://www.w3.org/2000/svg">
  <rect width="36" height="36" rx="8" fill="#0F172A"/>
  <g transform="translate(6,6)">
    <path d="M 0.96,1.44 C 0.48,7.2 4.32,14.88 10.68,19.68 C 10.68,19.44 11.52,22.32 12,22.32 C 12.48,22.32 13.32,19.44 13.32,19.68 C 19.68,14.88 23.52,7.2 23.04,1.44 L 18.24,1.44 C 17.28,5.28 14.88,11.52 13.2,17.28 C 12.48,18.24 11.52,18.24 10.8,17.28 C 9.12,11.52 6.72,5.28 5.76,1.44 Z" fill="#FFFFFF"/>
    <path d="M 12,2.4 C 12.96,6 14.64,10.08 14.64,13.92 C 14.64,15.36 13.32,16.8 12,16.8 C 10.68,16.8 9.36,15.36 9.36,13.92 C 9.36,10.08 11.04,6 12,2.4 Z" fill="#DC2626"/>
  </g>
</svg>
